<svg width="12" height="12" viewBox="0 0 12 12" fill="none" xmlns="http://www.w3.org/2000/svg">
<path fill-rule="evenodd" clip-rule="evenodd" d="M10.8862 1.11315C10.7353 0.962305 10.4908 0.962305 10.3399 1.11315L1.55082 9.90224C1.39998 10.0531 1.39998 10.2976 1.55082 10.4485C1.62623 10.5239 1.7251 10.5616 1.82394 10.5616C1.92279 10.5616 2.02164 10.5239 2.09707 10.4484L10.8862 1.65935C11.037 1.50853 11.037 1.26398 10.8862 1.11315Z" fill="white" stroke="white"/>
<path fill-rule="evenodd" clip-rule="evenodd" d="M10.8861 9.90229L2.09703 1.11319C1.9462 0.962347 1.70164 0.962347 1.55082 1.11319C1.39998 1.26401 1.39998 1.50856 1.55082 1.65939L10.3399 10.4485C10.4153 10.5239 10.5142 10.5616 10.6131 10.5616C10.7119 10.5616 10.8108 10.5239 10.8862 10.4485C11.037 10.2977 11.037 10.0531 10.8861 9.90228V9.90229Z" fill="white" stroke="white"/>
</svg>
