<svg width="120" height="166" viewBox="0 0 120 166" fill="none" xmlns="http://www.w3.org/2000/svg">
<path fill-rule="evenodd" clip-rule="evenodd" d="M14.9949 23.2554H104.962C113.243 23.2554 119.956 29.9684 119.956 38.2502V150.709C119.956 158.991 113.243 165.704 104.962 165.704H14.9949C6.71311 165.704 0 158.991 0 150.709V38.2502C0 29.9694 6.71311 23.2554 14.9949 23.2554Z" fill="#D5DAFF"/>
<path fill-rule="evenodd" clip-rule="evenodd" d="M102.765 130.414L84.666 148.513C83.2594 149.92 81.3526 150.709 79.3646 150.709H22.4914C18.3515 150.709 14.9949 147.353 14.9949 143.213V45.7478C14.9949 41.6069 18.3515 38.2502 22.4914 38.2502H97.465C101.605 38.2502 104.962 41.6069 104.962 45.7478V125.112C104.962 127.1 104.172 129.008 102.765 130.414V130.414Z" fill="#E4E7FB"/>
<path fill-rule="evenodd" clip-rule="evenodd" d="M29.9888 38.2502H89.9676C94.1075 38.2502 97.464 41.6069 97.464 45.7478C97.464 49.8887 94.1075 53.2452 89.9676 53.2452H29.9888C25.8479 53.2452 22.4914 49.8887 22.4914 45.7478C22.4914 41.6069 25.8479 38.2502 29.9888 38.2502Z" fill="#C2CBFF"/>
<path fill-rule="evenodd" clip-rule="evenodd" d="M59.9777 30.7529C55.8378 30.7529 52.4801 27.3962 52.4801 23.2554C52.4801 19.1154 55.8368 15.7579 59.9777 15.7579C64.1186 15.7579 67.4751 19.1144 67.4751 23.2554C67.4751 27.3962 64.1186 30.7529 59.9777 30.7529ZM86.2188 23.2554H82.47C82.47 10.8336 72.4005 0.763977 59.9777 0.763977C47.556 0.763977 37.4862 10.8336 37.4862 23.2554H33.7376C27.5268 23.2554 22.4914 28.2908 22.4914 34.5017C22.4914 40.7125 27.5268 45.7478 33.7376 45.7478H86.2188C92.4297 45.7478 97.465 40.7125 97.465 34.5017C97.465 28.2908 92.4297 23.2554 86.2188 23.2554H86.2188Z" fill="#7D8FAC"/>
</svg>
